<svg width="68" height="68" fill="none" xmlns="http://www.w3.org/2000/svg"><path d="M34 6.8C18.979 6.8 6.8 18.979 6.8 34c0 12.745 8.777 23.41 20.609 26.361a3.967 3.967 0 0 1-.209-1.321v-4.65h-3.418c-1.861 0-3.516-.8-4.318-2.286-.89-1.652-1.045-4.18-3.253-5.726-.655-.514-.156-1.101.599-1.022 1.394.394 2.55 1.35 3.638 2.77 1.083 1.421 1.593 1.743 3.617 1.743.982 0 2.45-.057 3.833-.274.744-1.889 2.029-3.627 3.6-4.447-9.058-.932-13.38-5.438-13.38-11.556 0-2.634 1.122-5.182 3.028-7.328-.626-2.13-1.412-6.476.24-8.13 4.076 0 6.54 2.642 7.131 3.356a20.383 20.383 0 0 1 6.605-1.09c2.348 0 4.588.394 6.623 1.095.585-.71 3.051-3.362 7.136-3.362 1.659 1.657.863 6.02.23 8.147 1.896 2.142 3.011 4.683 3.011 7.312 0 6.113-4.316 10.617-13.36 11.553 2.49 1.299 4.305 4.948 4.305 7.698v6.197c0 .236-.052.406-.08.607C53.587 55.932 61.2 45.868 61.2 34 61.2 18.979 49.021 6.8 34 6.8Z" fill="#000"/></svg>